<mxfile host="app.diagrams.net" modified="2022-12-29T15:52:52.810Z" agent="5.0 (Windows NT 10.0; Win64; x64) AppleWebKit/537.36 (KHTML, like Gecko) Chrome/108.0.0.0 Safari/537.36" version="20.7.4" etag="HauAtXN18vCmKgfWdA7P" type="github">
  <diagram id="KjuL9yBsum-zaHZo3uoQ" name="Page-1">
    <mxGraphModel dx="2390" dy="1337" grid="1" gridSize="10" guides="1" tooltips="1" connect="1" arrows="1" fold="1" page="1" pageScale="1" pageWidth="1169" pageHeight="827" math="0" shadow="0">
      <root>
        <mxCell id="0" />
        <mxCell id="1" parent="0" />
        <mxCell id="AUnA5w59gR8FyRmeHTNz-1" value="" style="edgeStyle=orthogonalEdgeStyle;rounded=0;orthogonalLoop=1;jettySize=auto;html=1;fontFamily=Baloo;fontSource=https%3A%2F%2Ffonts.googleapis.com%2Fcss%3Ffamily%3DBaloo;fontStyle=0;labelBackgroundColor=none;fontColor=default;fillColor=none;strokeWidth=2;" edge="1" parent="1" source="AUnA5w59gR8FyRmeHTNz-7" target="AUnA5w59gR8FyRmeHTNz-10">
          <mxGeometry relative="1" as="geometry">
            <Array as="points">
              <mxPoint x="300" y="50" />
            </Array>
          </mxGeometry>
        </mxCell>
        <mxCell id="AUnA5w59gR8FyRmeHTNz-2" value="" style="edgeStyle=orthogonalEdgeStyle;rounded=0;orthogonalLoop=1;jettySize=auto;html=1;fontFamily=Baloo;fontSource=https%3A%2F%2Ffonts.googleapis.com%2Fcss%3Ffamily%3DBaloo;fontStyle=0;labelBackgroundColor=none;fontColor=default;fillColor=none;strokeWidth=2;" edge="1" parent="1" source="AUnA5w59gR8FyRmeHTNz-7" target="AUnA5w59gR8FyRmeHTNz-15">
          <mxGeometry relative="1" as="geometry" />
        </mxCell>
        <mxCell id="AUnA5w59gR8FyRmeHTNz-3" value="" style="edgeStyle=orthogonalEdgeStyle;rounded=0;orthogonalLoop=1;jettySize=auto;html=1;fontFamily=Baloo;fontSource=https%3A%2F%2Ffonts.googleapis.com%2Fcss%3Ffamily%3DBaloo;fontStyle=0;labelBackgroundColor=none;fontColor=default;fillColor=none;strokeWidth=2;" edge="1" parent="1" source="AUnA5w59gR8FyRmeHTNz-7" target="AUnA5w59gR8FyRmeHTNz-23">
          <mxGeometry relative="1" as="geometry" />
        </mxCell>
        <mxCell id="AUnA5w59gR8FyRmeHTNz-4" value="" style="edgeStyle=orthogonalEdgeStyle;rounded=0;orthogonalLoop=1;jettySize=auto;html=1;fontFamily=Baloo;fontSource=https%3A%2F%2Ffonts.googleapis.com%2Fcss%3Ffamily%3DBaloo;fontStyle=0;labelBackgroundColor=none;fontColor=default;fillColor=none;strokeWidth=2;" edge="1" parent="1" source="AUnA5w59gR8FyRmeHTNz-7" target="AUnA5w59gR8FyRmeHTNz-25">
          <mxGeometry relative="1" as="geometry" />
        </mxCell>
        <mxCell id="AUnA5w59gR8FyRmeHTNz-5" value="" style="edgeStyle=orthogonalEdgeStyle;rounded=0;orthogonalLoop=1;jettySize=auto;html=1;fontFamily=Baloo;fontSource=https%3A%2F%2Ffonts.googleapis.com%2Fcss%3Ffamily%3DBaloo;fontStyle=0;labelBackgroundColor=none;fontColor=default;fillColor=none;strokeWidth=2;" edge="1" parent="1" source="AUnA5w59gR8FyRmeHTNz-7" target="AUnA5w59gR8FyRmeHTNz-58">
          <mxGeometry relative="1" as="geometry" />
        </mxCell>
        <mxCell id="AUnA5w59gR8FyRmeHTNz-6" value="" style="edgeStyle=orthogonalEdgeStyle;rounded=0;orthogonalLoop=1;jettySize=auto;html=1;fontFamily=Baloo;fontSource=https%3A%2F%2Ffonts.googleapis.com%2Fcss%3Ffamily%3DBaloo;fontStyle=0;labelBackgroundColor=none;fontColor=default;fillColor=none;strokeWidth=2;" edge="1" parent="1" source="AUnA5w59gR8FyRmeHTNz-7" target="AUnA5w59gR8FyRmeHTNz-70">
          <mxGeometry relative="1" as="geometry" />
        </mxCell>
        <mxCell id="AUnA5w59gR8FyRmeHTNz-7" value="Main Screen" style="rounded=1;whiteSpace=wrap;html=1;fontSize=12;glass=0;strokeWidth=2;shadow=0;fontFamily=Baloo;fontStyle=0;fontSource=https%3A%2F%2Ffonts.googleapis.com%2Fcss%3Ffamily%3DBaloo;labelBackgroundColor=none;fillColor=none;" vertex="1" parent="1">
          <mxGeometry x="1277" y="30" width="117" height="40" as="geometry" />
        </mxCell>
        <mxCell id="AUnA5w59gR8FyRmeHTNz-8" value="" style="edgeStyle=orthogonalEdgeStyle;rounded=0;orthogonalLoop=1;jettySize=auto;html=1;fontFamily=Baloo;fontSource=https%3A%2F%2Ffonts.googleapis.com%2Fcss%3Ffamily%3DBaloo;fontStyle=0;labelBackgroundColor=none;fontColor=default;fillColor=none;strokeWidth=2;" edge="1" parent="1" source="AUnA5w59gR8FyRmeHTNz-10" target="AUnA5w59gR8FyRmeHTNz-26">
          <mxGeometry relative="1" as="geometry">
            <Array as="points">
              <mxPoint x="140" y="160" />
            </Array>
          </mxGeometry>
        </mxCell>
        <mxCell id="AUnA5w59gR8FyRmeHTNz-9" value="" style="edgeStyle=orthogonalEdgeStyle;rounded=0;orthogonalLoop=1;jettySize=auto;html=1;fontFamily=Baloo;fontSource=https%3A%2F%2Ffonts.googleapis.com%2Fcss%3Ffamily%3DBaloo;fontStyle=0;labelBackgroundColor=none;fontColor=default;fillColor=none;strokeWidth=2;" edge="1" parent="1" source="AUnA5w59gR8FyRmeHTNz-10" target="AUnA5w59gR8FyRmeHTNz-30">
          <mxGeometry relative="1" as="geometry" />
        </mxCell>
        <mxCell id="AUnA5w59gR8FyRmeHTNz-10" value="Recent cards/See all" style="rounded=1;whiteSpace=wrap;html=1;fontSize=12;glass=0;strokeWidth=2;shadow=0;fontFamily=Baloo;fontStyle=0;fontSource=https%3A%2F%2Ffonts.googleapis.com%2Fcss%3Ffamily%3DBaloo;labelBackgroundColor=none;fillColor=none;" vertex="1" parent="1">
          <mxGeometry x="240" y="140" width="117" height="40" as="geometry" />
        </mxCell>
        <mxCell id="AUnA5w59gR8FyRmeHTNz-11" value="" style="edgeStyle=orthogonalEdgeStyle;rounded=0;orthogonalLoop=1;jettySize=auto;html=1;fontFamily=Baloo;fontSource=https%3A%2F%2Ffonts.googleapis.com%2Fcss%3Ffamily%3DBaloo;fontStyle=0;labelBackgroundColor=none;fontColor=default;fillColor=none;strokeWidth=2;" edge="1" parent="1" source="AUnA5w59gR8FyRmeHTNz-15" target="AUnA5w59gR8FyRmeHTNz-37">
          <mxGeometry relative="1" as="geometry" />
        </mxCell>
        <mxCell id="AUnA5w59gR8FyRmeHTNz-12" value="" style="edgeStyle=orthogonalEdgeStyle;rounded=0;orthogonalLoop=1;jettySize=auto;html=1;fontFamily=Baloo;fontSource=https%3A%2F%2Ffonts.googleapis.com%2Fcss%3Ffamily%3DBaloo;fontStyle=0;labelBackgroundColor=none;fontColor=default;fillColor=none;strokeWidth=2;" edge="1" parent="1" source="AUnA5w59gR8FyRmeHTNz-15" target="AUnA5w59gR8FyRmeHTNz-39">
          <mxGeometry relative="1" as="geometry" />
        </mxCell>
        <mxCell id="AUnA5w59gR8FyRmeHTNz-14" value="" style="edgeStyle=orthogonalEdgeStyle;rounded=0;orthogonalLoop=1;jettySize=auto;html=1;fontFamily=Baloo;fontSource=https%3A%2F%2Ffonts.googleapis.com%2Fcss%3Ffamily%3DBaloo;fontStyle=0;labelBackgroundColor=none;fontColor=default;fillColor=none;strokeWidth=2;" edge="1" parent="1" source="AUnA5w59gR8FyRmeHTNz-15" target="AUnA5w59gR8FyRmeHTNz-44">
          <mxGeometry relative="1" as="geometry">
            <Array as="points">
              <mxPoint x="796" y="230" />
            </Array>
          </mxGeometry>
        </mxCell>
        <mxCell id="AUnA5w59gR8FyRmeHTNz-15" value="Recent Friends/See all" style="rounded=1;whiteSpace=wrap;html=1;fontSize=12;glass=0;strokeWidth=2;shadow=0;fontFamily=Baloo;fontStyle=0;fontSource=https%3A%2F%2Ffonts.googleapis.com%2Fcss%3Ffamily%3DBaloo;labelBackgroundColor=none;fillColor=none;" vertex="1" parent="1">
          <mxGeometry x="738" y="140" width="117" height="40" as="geometry" />
        </mxCell>
        <mxCell id="AUnA5w59gR8FyRmeHTNz-16" value="" style="edgeStyle=orthogonalEdgeStyle;rounded=0;orthogonalLoop=1;jettySize=auto;html=1;fontFamily=Baloo;fontSource=https%3A%2F%2Ffonts.googleapis.com%2Fcss%3Ffamily%3DBaloo;fontStyle=0;labelBackgroundColor=none;fontColor=default;fillColor=none;strokeWidth=2;" edge="1" parent="1" source="AUnA5w59gR8FyRmeHTNz-23" target="AUnA5w59gR8FyRmeHTNz-59">
          <mxGeometry relative="1" as="geometry" />
        </mxCell>
        <mxCell id="AUnA5w59gR8FyRmeHTNz-17" value="" style="edgeStyle=orthogonalEdgeStyle;rounded=0;orthogonalLoop=1;jettySize=auto;html=1;fontFamily=Baloo;fontSource=https%3A%2F%2Ffonts.googleapis.com%2Fcss%3Ffamily%3DBaloo;fontStyle=0;labelBackgroundColor=none;fontColor=default;fillColor=none;strokeWidth=2;" edge="1" parent="1" source="AUnA5w59gR8FyRmeHTNz-23" target="AUnA5w59gR8FyRmeHTNz-60">
          <mxGeometry relative="1" as="geometry" />
        </mxCell>
        <mxCell id="AUnA5w59gR8FyRmeHTNz-18" value="" style="edgeStyle=orthogonalEdgeStyle;rounded=0;orthogonalLoop=1;jettySize=auto;html=1;fontFamily=Baloo;fontSource=https%3A%2F%2Ffonts.googleapis.com%2Fcss%3Ffamily%3DBaloo;fontStyle=0;labelBackgroundColor=none;fontColor=default;fillColor=none;strokeWidth=2;" edge="1" parent="1" source="AUnA5w59gR8FyRmeHTNz-23" target="AUnA5w59gR8FyRmeHTNz-61">
          <mxGeometry relative="1" as="geometry" />
        </mxCell>
        <mxCell id="AUnA5w59gR8FyRmeHTNz-19" style="edgeStyle=orthogonalEdgeStyle;rounded=0;orthogonalLoop=1;jettySize=auto;html=1;fontFamily=Baloo;fontSource=https%3A%2F%2Ffonts.googleapis.com%2Fcss%3Ffamily%3DBaloo;fontStyle=0;labelBackgroundColor=none;fontColor=default;fillColor=none;strokeWidth=2;" edge="1" parent="1" source="AUnA5w59gR8FyRmeHTNz-23" target="AUnA5w59gR8FyRmeHTNz-62">
          <mxGeometry relative="1" as="geometry" />
        </mxCell>
        <mxCell id="AUnA5w59gR8FyRmeHTNz-20" value="" style="edgeStyle=orthogonalEdgeStyle;rounded=0;orthogonalLoop=1;jettySize=auto;html=1;fontFamily=Baloo;fontSource=https%3A%2F%2Ffonts.googleapis.com%2Fcss%3Ffamily%3DBaloo;fontStyle=0;labelBackgroundColor=none;fontColor=default;fillColor=none;strokeWidth=2;" edge="1" parent="1" source="AUnA5w59gR8FyRmeHTNz-23" target="AUnA5w59gR8FyRmeHTNz-63">
          <mxGeometry relative="1" as="geometry" />
        </mxCell>
        <mxCell id="AUnA5w59gR8FyRmeHTNz-22" value="" style="edgeStyle=orthogonalEdgeStyle;rounded=0;orthogonalLoop=1;jettySize=auto;html=1;fontFamily=Baloo;fontSource=https%3A%2F%2Ffonts.googleapis.com%2Fcss%3Ffamily%3DBaloo;fontStyle=0;labelBackgroundColor=none;fontColor=default;fillColor=none;strokeWidth=2;" edge="1" parent="1" source="AUnA5w59gR8FyRmeHTNz-23" target="AUnA5w59gR8FyRmeHTNz-65">
          <mxGeometry relative="1" as="geometry" />
        </mxCell>
        <mxCell id="AUnA5w59gR8FyRmeHTNz-23" value="Your Profile" style="rounded=1;whiteSpace=wrap;html=1;fontSize=12;glass=0;strokeWidth=2;shadow=0;fontFamily=Baloo;fontStyle=0;fontSource=https%3A%2F%2Ffonts.googleapis.com%2Fcss%3Ffamily%3DBaloo;labelBackgroundColor=none;fillColor=none;" vertex="1" parent="1">
          <mxGeometry x="1277" y="770" width="117" height="40" as="geometry" />
        </mxCell>
        <mxCell id="AUnA5w59gR8FyRmeHTNz-24" style="edgeStyle=orthogonalEdgeStyle;rounded=0;orthogonalLoop=1;jettySize=auto;html=1;fontFamily=Baloo;entryX=1;entryY=0.5;entryDx=0;entryDy=0;fontSource=https%3A%2F%2Ffonts.googleapis.com%2Fcss%3Ffamily%3DBaloo;fontStyle=0;labelBackgroundColor=none;fontColor=default;fillColor=none;strokeWidth=2;" edge="1" parent="1" source="AUnA5w59gR8FyRmeHTNz-25" target="AUnA5w59gR8FyRmeHTNz-39">
          <mxGeometry relative="1" as="geometry">
            <mxPoint x="1070" y="190" as="targetPoint" />
            <Array as="points">
              <mxPoint x="1549" y="240" />
              <mxPoint x="1120" y="240" />
              <mxPoint x="1120" y="160" />
            </Array>
          </mxGeometry>
        </mxCell>
        <mxCell id="AUnA5w59gR8FyRmeHTNz-25" value="Give/Request" style="rounded=1;whiteSpace=wrap;html=1;fontSize=12;glass=0;strokeWidth=2;shadow=0;fontFamily=Baloo;fontStyle=0;fontSource=https%3A%2F%2Ffonts.googleapis.com%2Fcss%3Ffamily%3DBaloo;labelBackgroundColor=none;fillColor=none;" vertex="1" parent="1">
          <mxGeometry x="1490" y="140" width="117" height="40" as="geometry" />
        </mxCell>
        <mxCell id="AUnA5w59gR8FyRmeHTNz-26" value="Add new card" style="rounded=1;whiteSpace=wrap;html=1;fontSize=12;glass=0;strokeWidth=2;shadow=0;fontFamily=Baloo;fontStyle=0;fontSource=https%3A%2F%2Ffonts.googleapis.com%2Fcss%3Ffamily%3DBaloo;labelBackgroundColor=none;fillColor=none;" vertex="1" parent="1">
          <mxGeometry x="70" y="140" width="117" height="40" as="geometry" />
        </mxCell>
        <mxCell id="AUnA5w59gR8FyRmeHTNz-27" value="" style="edgeStyle=orthogonalEdgeStyle;rounded=0;orthogonalLoop=1;jettySize=auto;html=1;fontFamily=Baloo;fontSource=https%3A%2F%2Ffonts.googleapis.com%2Fcss%3Ffamily%3DBaloo;fontStyle=0;labelBackgroundColor=none;fontColor=default;fillColor=none;strokeWidth=2;" edge="1" parent="1" source="AUnA5w59gR8FyRmeHTNz-30" target="AUnA5w59gR8FyRmeHTNz-32">
          <mxGeometry relative="1" as="geometry" />
        </mxCell>
        <mxCell id="AUnA5w59gR8FyRmeHTNz-28" value="" style="edgeStyle=orthogonalEdgeStyle;rounded=0;orthogonalLoop=1;jettySize=auto;html=1;fontFamily=Baloo;fontSource=https%3A%2F%2Ffonts.googleapis.com%2Fcss%3Ffamily%3DBaloo;fontStyle=0;labelBackgroundColor=none;fontColor=default;fillColor=none;strokeWidth=2;" edge="1" parent="1" source="AUnA5w59gR8FyRmeHTNz-30" target="AUnA5w59gR8FyRmeHTNz-33">
          <mxGeometry relative="1" as="geometry" />
        </mxCell>
        <mxCell id="AUnA5w59gR8FyRmeHTNz-29" value="" style="edgeStyle=orthogonalEdgeStyle;rounded=0;orthogonalLoop=1;jettySize=auto;html=1;fontFamily=Baloo;exitX=1;exitY=0.5;exitDx=0;exitDy=0;fontSource=https%3A%2F%2Ffonts.googleapis.com%2Fcss%3Ffamily%3DBaloo;fontStyle=0;labelBackgroundColor=none;fontColor=default;fillColor=none;strokeWidth=2;" edge="1" parent="1" source="AUnA5w59gR8FyRmeHTNz-30" target="AUnA5w59gR8FyRmeHTNz-36">
          <mxGeometry relative="1" as="geometry">
            <mxPoint x="360" y="240" as="sourcePoint" />
          </mxGeometry>
        </mxCell>
        <mxCell id="AUnA5w59gR8FyRmeHTNz-30" value="See all transactions" style="rounded=1;whiteSpace=wrap;html=1;fontSize=12;glass=0;strokeWidth=2;shadow=0;fontFamily=Baloo;fontStyle=0;fontSource=https%3A%2F%2Ffonts.googleapis.com%2Fcss%3Ffamily%3DBaloo;labelBackgroundColor=none;fillColor=none;" vertex="1" parent="1">
          <mxGeometry x="240" y="220" width="117" height="40" as="geometry" />
        </mxCell>
        <mxCell id="AUnA5w59gR8FyRmeHTNz-31" value="" style="edgeStyle=orthogonalEdgeStyle;rounded=0;orthogonalLoop=1;jettySize=auto;html=1;fontFamily=Baloo;fontSource=https%3A%2F%2Ffonts.googleapis.com%2Fcss%3Ffamily%3DBaloo;fontStyle=0;labelBackgroundColor=none;fontColor=default;fillColor=none;strokeWidth=2;" edge="1" parent="1" source="AUnA5w59gR8FyRmeHTNz-32" target="AUnA5w59gR8FyRmeHTNz-34">
          <mxGeometry relative="1" as="geometry" />
        </mxCell>
        <mxCell id="AUnA5w59gR8FyRmeHTNz-32" value="Transaction history" style="rounded=1;whiteSpace=wrap;html=1;fontSize=12;glass=0;strokeWidth=2;shadow=0;fontFamily=Baloo;fontStyle=0;fontSource=https%3A%2F%2Ffonts.googleapis.com%2Fcss%3Ffamily%3DBaloo;labelBackgroundColor=none;fillColor=none;" vertex="1" parent="1">
          <mxGeometry x="240" y="280" width="117" height="40" as="geometry" />
        </mxCell>
        <mxCell id="AUnA5w59gR8FyRmeHTNz-33" value="Saving and expenses graph" style="rounded=1;whiteSpace=wrap;html=1;fontSize=12;glass=0;strokeWidth=2;shadow=0;fontFamily=Baloo;fontStyle=0;fontSource=https%3A%2F%2Ffonts.googleapis.com%2Fcss%3Ffamily%3DBaloo;labelBackgroundColor=none;fillColor=none;" vertex="1" parent="1">
          <mxGeometry x="90" y="280" width="117" height="40" as="geometry" />
        </mxCell>
        <mxCell id="AUnA5w59gR8FyRmeHTNz-34" value="Search Transaction hsitory" style="rounded=1;whiteSpace=wrap;html=1;fontSize=12;glass=0;strokeWidth=2;shadow=0;fontFamily=Baloo;fontStyle=0;fontSource=https%3A%2F%2Ffonts.googleapis.com%2Fcss%3Ffamily%3DBaloo;labelBackgroundColor=none;fillColor=none;" vertex="1" parent="1">
          <mxGeometry x="240" y="340" width="117" height="40" as="geometry" />
        </mxCell>
        <mxCell id="AUnA5w59gR8FyRmeHTNz-35" value="" style="edgeStyle=orthogonalEdgeStyle;rounded=0;orthogonalLoop=1;jettySize=auto;html=1;fontFamily=Baloo;fontSource=https%3A%2F%2Ffonts.googleapis.com%2Fcss%3Ffamily%3DBaloo;fontStyle=0;labelBackgroundColor=none;fontColor=default;fillColor=none;strokeWidth=2;" edge="1" parent="1" source="AUnA5w59gR8FyRmeHTNz-36" target="AUnA5w59gR8FyRmeHTNz-30">
          <mxGeometry relative="1" as="geometry" />
        </mxCell>
        <mxCell id="AUnA5w59gR8FyRmeHTNz-36" value="change card" style="rounded=1;whiteSpace=wrap;html=1;fontSize=12;glass=0;strokeWidth=2;shadow=0;fontFamily=Baloo;fontStyle=0;fontSource=https%3A%2F%2Ffonts.googleapis.com%2Fcss%3Ffamily%3DBaloo;labelBackgroundColor=none;fillColor=none;" vertex="1" parent="1">
          <mxGeometry x="410" y="220" width="117" height="40" as="geometry" />
        </mxCell>
        <mxCell id="AUnA5w59gR8FyRmeHTNz-37" value="Add/Remove friends" style="rounded=1;whiteSpace=wrap;html=1;fontSize=12;glass=0;strokeWidth=2;shadow=0;fontFamily=Baloo;fontStyle=0;fontSource=https%3A%2F%2Ffonts.googleapis.com%2Fcss%3Ffamily%3DBaloo;labelBackgroundColor=none;fillColor=none;" vertex="1" parent="1">
          <mxGeometry x="587" y="140" width="117" height="40" as="geometry" />
        </mxCell>
        <mxCell id="AUnA5w59gR8FyRmeHTNz-38" value="" style="edgeStyle=orthogonalEdgeStyle;rounded=0;orthogonalLoop=1;jettySize=auto;html=1;fontFamily=Baloo;fontSource=https%3A%2F%2Ffonts.googleapis.com%2Fcss%3Ffamily%3DBaloo;fontStyle=0;labelBackgroundColor=none;fontColor=default;fillColor=none;strokeWidth=2;" edge="1" parent="1" source="AUnA5w59gR8FyRmeHTNz-39" target="AUnA5w59gR8FyRmeHTNz-41">
          <mxGeometry relative="1" as="geometry">
            <Array as="points">
              <mxPoint x="940" y="250" />
              <mxPoint x="940" y="250" />
            </Array>
          </mxGeometry>
        </mxCell>
        <mxCell id="AUnA5w59gR8FyRmeHTNz-39" value="Search friends" style="rounded=1;whiteSpace=wrap;html=1;fontSize=12;glass=0;strokeWidth=2;shadow=0;fontFamily=Baloo;fontStyle=0;fontSource=https%3A%2F%2Ffonts.googleapis.com%2Fcss%3Ffamily%3DBaloo;labelBackgroundColor=none;fillColor=none;" vertex="1" parent="1">
          <mxGeometry x="890" y="140" width="117" height="40" as="geometry" />
        </mxCell>
        <mxCell id="AUnA5w59gR8FyRmeHTNz-40" value="" style="edgeStyle=orthogonalEdgeStyle;rounded=0;orthogonalLoop=1;jettySize=auto;html=1;fontFamily=Baloo;fontSource=https%3A%2F%2Ffonts.googleapis.com%2Fcss%3Ffamily%3DBaloo;fontStyle=0;labelBackgroundColor=none;fontColor=default;fillColor=none;strokeWidth=2;" edge="1" parent="1" source="AUnA5w59gR8FyRmeHTNz-41" target="AUnA5w59gR8FyRmeHTNz-47">
          <mxGeometry relative="1" as="geometry" />
        </mxCell>
        <mxCell id="AUnA5w59gR8FyRmeHTNz-41" value="Select amount" style="rounded=1;whiteSpace=wrap;html=1;fontSize=12;glass=0;strokeWidth=2;shadow=0;fontFamily=Baloo;fontStyle=0;fontSource=https%3A%2F%2Ffonts.googleapis.com%2Fcss%3Ffamily%3DBaloo;labelBackgroundColor=none;fillColor=none;" vertex="1" parent="1">
          <mxGeometry x="890" y="280" width="117" height="40" as="geometry" />
        </mxCell>
        <mxCell id="AUnA5w59gR8FyRmeHTNz-43" value="" style="edgeStyle=orthogonalEdgeStyle;rounded=0;orthogonalLoop=1;jettySize=auto;html=1;fontFamily=Baloo;fontSource=https%3A%2F%2Ffonts.googleapis.com%2Fcss%3Ffamily%3DBaloo;fontStyle=0;labelBackgroundColor=none;fontColor=default;fillColor=none;strokeWidth=2;" edge="1" parent="1" source="AUnA5w59gR8FyRmeHTNz-44" target="AUnA5w59gR8FyRmeHTNz-56">
          <mxGeometry relative="1" as="geometry">
            <Array as="points">
              <mxPoint x="586" y="230" />
            </Array>
          </mxGeometry>
        </mxCell>
        <mxCell id="AUnA5w59gR8FyRmeHTNz-83" value="" style="edgeStyle=orthogonalEdgeStyle;rounded=0;orthogonalLoop=1;jettySize=auto;html=1;strokeWidth=2;" edge="1" parent="1" source="AUnA5w59gR8FyRmeHTNz-44" target="AUnA5w59gR8FyRmeHTNz-57">
          <mxGeometry relative="1" as="geometry" />
        </mxCell>
        <mxCell id="AUnA5w59gR8FyRmeHTNz-44" value="Friend&#39;s profile" style="rounded=1;whiteSpace=wrap;html=1;fontSize=12;glass=0;strokeWidth=2;shadow=0;fontFamily=Baloo;fontStyle=0;fontSource=https%3A%2F%2Ffonts.googleapis.com%2Fcss%3Ffamily%3DBaloo;labelBackgroundColor=none;fillColor=none;" vertex="1" parent="1">
          <mxGeometry x="600" y="210" width="117" height="40" as="geometry" />
        </mxCell>
        <mxCell id="AUnA5w59gR8FyRmeHTNz-45" value="" style="edgeStyle=orthogonalEdgeStyle;rounded=0;orthogonalLoop=1;jettySize=auto;html=1;fontFamily=Baloo;entryX=0.504;entryY=0.064;entryDx=0;entryDy=0;entryPerimeter=0;fontSource=https%3A%2F%2Ffonts.googleapis.com%2Fcss%3Ffamily%3DBaloo;fontStyle=0;labelBackgroundColor=none;fontColor=default;fillColor=none;strokeWidth=2;" edge="1" parent="1" source="AUnA5w59gR8FyRmeHTNz-47" target="AUnA5w59gR8FyRmeHTNz-49">
          <mxGeometry relative="1" as="geometry" />
        </mxCell>
        <mxCell id="AUnA5w59gR8FyRmeHTNz-46" value="" style="edgeStyle=orthogonalEdgeStyle;rounded=0;orthogonalLoop=1;jettySize=auto;html=1;fontFamily=Baloo;entryX=0.496;entryY=0.057;entryDx=0;entryDy=0;entryPerimeter=0;fontSource=https%3A%2F%2Ffonts.googleapis.com%2Fcss%3Ffamily%3DBaloo;fontStyle=0;labelBackgroundColor=none;fontColor=default;fillColor=none;strokeWidth=2;" edge="1" parent="1" target="AUnA5w59gR8FyRmeHTNz-51">
          <mxGeometry relative="1" as="geometry">
            <mxPoint x="1007" y="417" as="sourcePoint" />
            <mxPoint x="1070" y="457" as="targetPoint" />
          </mxGeometry>
        </mxCell>
        <mxCell id="AUnA5w59gR8FyRmeHTNz-47" value="Are you sure?" style="rounded=1;whiteSpace=wrap;html=1;fontSize=12;glass=0;strokeWidth=2;shadow=0;fontFamily=Baloo;fontStyle=0;fontSource=https%3A%2F%2Ffonts.googleapis.com%2Fcss%3Ffamily%3DBaloo;labelBackgroundColor=none;fillColor=none;" vertex="1" parent="1">
          <mxGeometry x="890" y="400" width="117" height="40" as="geometry" />
        </mxCell>
        <mxCell id="AUnA5w59gR8FyRmeHTNz-48" value="" style="edgeStyle=orthogonalEdgeStyle;rounded=0;orthogonalLoop=1;jettySize=auto;html=1;fontFamily=Baloo;fontSource=https%3A%2F%2Ffonts.googleapis.com%2Fcss%3Ffamily%3DBaloo;fontStyle=0;labelBackgroundColor=none;fontColor=default;fillColor=none;strokeWidth=2;" edge="1" parent="1" source="AUnA5w59gR8FyRmeHTNz-49" target="AUnA5w59gR8FyRmeHTNz-52">
          <mxGeometry relative="1" as="geometry" />
        </mxCell>
        <mxCell id="AUnA5w59gR8FyRmeHTNz-49" value="Yes" style="rhombus;whiteSpace=wrap;html=1;fontFamily=Baloo;rounded=1;glass=0;strokeWidth=2;shadow=0;fontStyle=0;fontSource=https%3A%2F%2Ffonts.googleapis.com%2Fcss%3Ffamily%3DBaloo;labelBackgroundColor=none;fillColor=none;" vertex="1" parent="1">
          <mxGeometry x="790" y="460" width="80" height="80" as="geometry" />
        </mxCell>
        <mxCell id="AUnA5w59gR8FyRmeHTNz-50" style="edgeStyle=orthogonalEdgeStyle;rounded=0;orthogonalLoop=1;jettySize=auto;html=1;fontFamily=Baloo;fontSource=https%3A%2F%2Ffonts.googleapis.com%2Fcss%3Ffamily%3DBaloo;fontStyle=0;labelBackgroundColor=none;fontColor=default;fillColor=none;strokeWidth=2;" edge="1" parent="1">
          <mxGeometry relative="1" as="geometry">
            <mxPoint x="1106" y="500" as="sourcePoint" />
            <mxPoint x="1006" y="300" as="targetPoint" />
            <Array as="points">
              <mxPoint x="1136" y="500" />
              <mxPoint x="1136" y="300" />
            </Array>
          </mxGeometry>
        </mxCell>
        <mxCell id="AUnA5w59gR8FyRmeHTNz-51" value="No" style="rhombus;whiteSpace=wrap;html=1;fontFamily=Baloo;rounded=1;glass=0;strokeWidth=2;shadow=0;fontStyle=0;fontSource=https%3A%2F%2Ffonts.googleapis.com%2Fcss%3Ffamily%3DBaloo;labelBackgroundColor=none;fillColor=none;" vertex="1" parent="1">
          <mxGeometry x="1030" y="460" width="80" height="80" as="geometry" />
        </mxCell>
        <mxCell id="AUnA5w59gR8FyRmeHTNz-52" value="Request sent/Amount sent" style="whiteSpace=wrap;html=1;fontFamily=Baloo;rounded=1;glass=0;strokeWidth=2;shadow=0;fontStyle=0;fontSource=https%3A%2F%2Ffonts.googleapis.com%2Fcss%3Ffamily%3DBaloo;labelBackgroundColor=none;fillColor=none;" vertex="1" parent="1">
          <mxGeometry x="770" y="630" width="120" height="60" as="geometry" />
        </mxCell>
        <mxCell id="AUnA5w59gR8FyRmeHTNz-53" value="" style="edgeStyle=orthogonalEdgeStyle;rounded=0;orthogonalLoop=1;jettySize=auto;html=1;fontFamily=Baloo;fontSource=https%3A%2F%2Ffonts.googleapis.com%2Fcss%3Ffamily%3DBaloo;fontStyle=0;labelBackgroundColor=none;fontColor=default;fillColor=none;strokeWidth=2;" edge="1" parent="1" source="AUnA5w59gR8FyRmeHTNz-56" target="AUnA5w59gR8FyRmeHTNz-66">
          <mxGeometry relative="1" as="geometry" />
        </mxCell>
        <mxCell id="AUnA5w59gR8FyRmeHTNz-54" value="" style="edgeStyle=orthogonalEdgeStyle;rounded=0;orthogonalLoop=1;jettySize=auto;html=1;fontFamily=Baloo;fontSource=https%3A%2F%2Ffonts.googleapis.com%2Fcss%3Ffamily%3DBaloo;fontStyle=0;labelBackgroundColor=none;fontColor=default;fillColor=none;strokeWidth=2;" edge="1" parent="1" source="AUnA5w59gR8FyRmeHTNz-56" target="AUnA5w59gR8FyRmeHTNz-67">
          <mxGeometry relative="1" as="geometry" />
        </mxCell>
        <mxCell id="AUnA5w59gR8FyRmeHTNz-55" value="" style="edgeStyle=orthogonalEdgeStyle;rounded=0;orthogonalLoop=1;jettySize=auto;html=1;fontFamily=Baloo;fontSource=https%3A%2F%2Ffonts.googleapis.com%2Fcss%3Ffamily%3DBaloo;fontStyle=0;labelBackgroundColor=none;fontColor=default;fillColor=none;strokeWidth=2;" edge="1" parent="1" source="AUnA5w59gR8FyRmeHTNz-56" target="AUnA5w59gR8FyRmeHTNz-68">
          <mxGeometry relative="1" as="geometry" />
        </mxCell>
        <mxCell id="AUnA5w59gR8FyRmeHTNz-56" value="Friend&#39;s profile" style="rounded=1;whiteSpace=wrap;html=1;fontSize=12;glass=0;strokeWidth=2;shadow=0;fontFamily=Baloo;fontStyle=0;fontSource=https%3A%2F%2Ffonts.googleapis.com%2Fcss%3Ffamily%3DBaloo;labelBackgroundColor=none;fillColor=none;" vertex="1" parent="1">
          <mxGeometry x="520" y="640" width="117" height="40" as="geometry" />
        </mxCell>
        <mxCell id="AUnA5w59gR8FyRmeHTNz-84" style="edgeStyle=orthogonalEdgeStyle;rounded=0;orthogonalLoop=1;jettySize=auto;html=1;entryX=0;entryY=0.5;entryDx=0;entryDy=0;strokeWidth=2;" edge="1" parent="1" source="AUnA5w59gR8FyRmeHTNz-57" target="AUnA5w59gR8FyRmeHTNz-41">
          <mxGeometry relative="1" as="geometry" />
        </mxCell>
        <mxCell id="AUnA5w59gR8FyRmeHTNz-57" value="Give/Request" style="rounded=1;whiteSpace=wrap;html=1;fontSize=12;glass=0;strokeWidth=2;shadow=0;fontFamily=Baloo;fontStyle=0;fontSource=https%3A%2F%2Ffonts.googleapis.com%2Fcss%3Ffamily%3DBaloo;labelBackgroundColor=none;fillColor=none;" vertex="1" parent="1">
          <mxGeometry x="600" y="280" width="117" height="40" as="geometry" />
        </mxCell>
        <mxCell id="AUnA5w59gR8FyRmeHTNz-58" value="Total Amount" style="rounded=1;whiteSpace=wrap;html=1;fontSize=12;glass=0;strokeWidth=2;shadow=0;fontFamily=Baloo;fontStyle=0;arcSize=50;fontSource=https%3A%2F%2Ffonts.googleapis.com%2Fcss%3Ffamily%3DBaloo;labelBackgroundColor=none;fillColor=none;" vertex="1" parent="1">
          <mxGeometry x="400" y="140" width="120" height="40" as="geometry" />
        </mxCell>
        <mxCell id="AUnA5w59gR8FyRmeHTNz-59" value="QR Code" style="rounded=1;whiteSpace=wrap;html=1;fontSize=12;glass=0;strokeWidth=2;shadow=0;fontFamily=Baloo;fontStyle=0;fontSource=https%3A%2F%2Ffonts.googleapis.com%2Fcss%3Ffamily%3DBaloo;labelBackgroundColor=none;fillColor=none;" vertex="1" parent="1">
          <mxGeometry x="1080" y="840" width="117" height="40" as="geometry" />
        </mxCell>
        <mxCell id="AUnA5w59gR8FyRmeHTNz-60" value="Last used card" style="rounded=1;whiteSpace=wrap;html=1;fontSize=12;glass=0;strokeWidth=2;shadow=0;fontFamily=Baloo;fontStyle=0;fontSource=https%3A%2F%2Ffonts.googleapis.com%2Fcss%3Ffamily%3DBaloo;labelBackgroundColor=none;fillColor=none;" vertex="1" parent="1">
          <mxGeometry x="890" y="840" width="117" height="40" as="geometry" />
        </mxCell>
        <mxCell id="AUnA5w59gR8FyRmeHTNz-61" value="Accound information" style="rounded=1;whiteSpace=wrap;html=1;fontSize=12;glass=0;strokeWidth=2;shadow=0;fontFamily=Baloo;fontStyle=0;fontSource=https%3A%2F%2Ffonts.googleapis.com%2Fcss%3Ffamily%3DBaloo;labelBackgroundColor=none;fillColor=none;" vertex="1" parent="1">
          <mxGeometry x="1470" y="840" width="117" height="40" as="geometry" />
        </mxCell>
        <mxCell id="AUnA5w59gR8FyRmeHTNz-62" value="Taxes and Statements" style="rounded=1;whiteSpace=wrap;html=1;fontSize=12;glass=0;strokeWidth=2;shadow=0;fontFamily=Baloo;fontStyle=0;fontSource=https%3A%2F%2Ffonts.googleapis.com%2Fcss%3Ffamily%3DBaloo;labelBackgroundColor=none;fillColor=none;" vertex="1" parent="1">
          <mxGeometry x="1615" y="840" width="117" height="40" as="geometry" />
        </mxCell>
        <mxCell id="AUnA5w59gR8FyRmeHTNz-63" value="Security and login" style="rounded=1;whiteSpace=wrap;html=1;fontSize=12;glass=0;strokeWidth=2;shadow=0;fontFamily=Baloo;fontStyle=0;fontSource=https%3A%2F%2Ffonts.googleapis.com%2Fcss%3Ffamily%3DBaloo;labelBackgroundColor=none;fillColor=none;" vertex="1" parent="1">
          <mxGeometry x="1754" y="840" width="117" height="40" as="geometry" />
        </mxCell>
        <mxCell id="AUnA5w59gR8FyRmeHTNz-64" value="Customize" style="rounded=1;whiteSpace=wrap;html=1;fontSize=12;glass=0;strokeWidth=2;shadow=0;fontFamily=Baloo;fontStyle=0;fontSource=https%3A%2F%2Ffonts.googleapis.com%2Fcss%3Ffamily%3DBaloo;labelBackgroundColor=none;fillColor=none;" vertex="1" parent="1">
          <mxGeometry x="1910" y="860" width="117" height="40" as="geometry" />
        </mxCell>
        <mxCell id="AUnA5w59gR8FyRmeHTNz-65" value="Edit profile" style="rounded=1;whiteSpace=wrap;html=1;fontSize=12;glass=0;strokeWidth=2;shadow=0;fontFamily=Baloo;fontStyle=0;fontSource=https%3A%2F%2Ffonts.googleapis.com%2Fcss%3Ffamily%3DBaloo;labelBackgroundColor=none;fillColor=none;" vertex="1" parent="1">
          <mxGeometry x="1277" y="840" width="117" height="40" as="geometry" />
        </mxCell>
        <mxCell id="AUnA5w59gR8FyRmeHTNz-66" value="All transaction history with this friend&lt;br&gt;" style="rounded=1;whiteSpace=wrap;html=1;fontSize=12;glass=0;strokeWidth=2;shadow=0;fontFamily=Baloo;fontStyle=0;fontSource=https%3A%2F%2Ffonts.googleapis.com%2Fcss%3Ffamily%3DBaloo;labelBackgroundColor=none;fillColor=none;" vertex="1" parent="1">
          <mxGeometry x="520" y="850" width="117" height="40" as="geometry" />
        </mxCell>
        <mxCell id="AUnA5w59gR8FyRmeHTNz-67" value="Block friend" style="rounded=1;whiteSpace=wrap;html=1;fontSize=12;glass=0;strokeWidth=2;shadow=0;fontFamily=Baloo;fontStyle=0;fontSource=https%3A%2F%2Ffonts.googleapis.com%2Fcss%3Ffamily%3DBaloo;labelBackgroundColor=none;fillColor=none;" vertex="1" parent="1">
          <mxGeometry x="150" y="850" width="117" height="40" as="geometry" />
        </mxCell>
        <mxCell id="AUnA5w59gR8FyRmeHTNz-68" value="Remove friend" style="rounded=1;whiteSpace=wrap;html=1;fontSize=12;glass=0;strokeWidth=2;shadow=0;fontFamily=Baloo;fontStyle=0;fontSource=https%3A%2F%2Ffonts.googleapis.com%2Fcss%3Ffamily%3DBaloo;labelBackgroundColor=none;fillColor=none;" vertex="1" parent="1">
          <mxGeometry x="320" y="850" width="117" height="40" as="geometry" />
        </mxCell>
        <mxCell id="AUnA5w59gR8FyRmeHTNz-69" value="" style="edgeStyle=orthogonalEdgeStyle;rounded=0;orthogonalLoop=1;jettySize=auto;html=1;fontFamily=Baloo;fontSource=https%3A%2F%2Ffonts.googleapis.com%2Fcss%3Ffamily%3DBaloo;fontStyle=0;labelBackgroundColor=none;fontColor=default;fillColor=none;strokeWidth=2;" edge="1" parent="1" source="AUnA5w59gR8FyRmeHTNz-70" target="AUnA5w59gR8FyRmeHTNz-72">
          <mxGeometry relative="1" as="geometry" />
        </mxCell>
        <mxCell id="AUnA5w59gR8FyRmeHTNz-70" value="Notifications&lt;br&gt;" style="rounded=1;whiteSpace=wrap;html=1;fontSize=12;glass=0;strokeWidth=2;shadow=0;fontFamily=Baloo;fontStyle=0;fontSource=https%3A%2F%2Ffonts.googleapis.com%2Fcss%3Ffamily%3DBaloo;labelBackgroundColor=none;fillColor=none;" vertex="1" parent="1">
          <mxGeometry x="1615" y="140" width="117" height="40" as="geometry" />
        </mxCell>
        <mxCell id="AUnA5w59gR8FyRmeHTNz-71" style="edgeStyle=orthogonalEdgeStyle;rounded=0;orthogonalLoop=1;jettySize=auto;html=1;entryX=1;entryY=0.5;entryDx=0;entryDy=0;fontFamily=Baloo;fontSource=https%3A%2F%2Ffonts.googleapis.com%2Fcss%3Ffamily%3DBaloo;fontStyle=0;labelBackgroundColor=none;fontColor=default;fillColor=none;strokeWidth=2;" edge="1" parent="1" source="AUnA5w59gR8FyRmeHTNz-72" target="AUnA5w59gR8FyRmeHTNz-52">
          <mxGeometry relative="1" as="geometry">
            <Array as="points">
              <mxPoint x="1673" y="660" />
            </Array>
          </mxGeometry>
        </mxCell>
        <mxCell id="AUnA5w59gR8FyRmeHTNz-72" value="Accept money/ Receive money" style="rounded=1;whiteSpace=wrap;html=1;fontSize=12;glass=0;strokeWidth=2;shadow=0;fontFamily=Baloo;fontStyle=0;fontSource=https%3A%2F%2Ffonts.googleapis.com%2Fcss%3Ffamily%3DBaloo;labelBackgroundColor=none;fillColor=none;" vertex="1" parent="1">
          <mxGeometry x="1615" y="250" width="117" height="40" as="geometry" />
        </mxCell>
      </root>
    </mxGraphModel>
  </diagram>
</mxfile>
